<mxfile host="app.diagrams.net" modified="2022-02-24T23:38:20.367Z" agent="5.0 (Windows NT 10.0; Win64; x64) AppleWebKit/537.36 (KHTML, like Gecko) Chrome/98.0.4758.102 Safari/537.36" etag="HZthC5e8qHbv1dkWx58L" version="16.6.3" type="github">
  <diagram id="GxBTdln_U4BqLKOV0L5_" name="第 1 页">
    <mxGraphModel dx="1422" dy="794" grid="0" gridSize="10" guides="1" tooltips="1" connect="1" arrows="1" fold="1" page="0" pageScale="1" pageWidth="827" pageHeight="1169" background="#ffffff" math="0" shadow="0">
      <root>
        <mxCell id="0" />
        <mxCell id="1" parent="0" />
        <mxCell id="r8D3JHcTatnKne28WLY3-1" value="broadcast-subscriber.service" style="swimlane;fontStyle=1;align=center;verticalAlign=top;childLayout=stackLayout;horizontal=1;startSize=26;horizontalStack=0;resizeParent=1;resizeParentMax=0;resizeLast=0;collapsible=1;marginBottom=0;" parent="1" vertex="1">
          <mxGeometry x="173" y="130" width="200" height="164" as="geometry" />
        </mxCell>
        <mxCell id="r8D3JHcTatnKne28WLY3-7" value="- taskStatusSubject" style="text;strokeColor=none;fillColor=none;align=left;verticalAlign=top;spacingLeft=4;spacingRight=4;overflow=hidden;rotatable=0;points=[[0,0.5],[1,0.5]];portConstraint=eastwest;" parent="r8D3JHcTatnKne28WLY3-1" vertex="1">
          <mxGeometry y="26" width="200" height="26" as="geometry" />
        </mxCell>
        <mxCell id="r8D3JHcTatnKne28WLY3-2" value="+ taskStatus$" style="text;strokeColor=none;fillColor=none;align=left;verticalAlign=top;spacingLeft=4;spacingRight=4;overflow=hidden;rotatable=0;points=[[0,0.5],[1,0.5]];portConstraint=eastwest;" parent="r8D3JHcTatnKne28WLY3-1" vertex="1">
          <mxGeometry y="52" width="200" height="26" as="geometry" />
        </mxCell>
        <mxCell id="r8D3JHcTatnKne28WLY3-5" value="- rsleNodeAndTaskMapperSubject" style="text;strokeColor=none;fillColor=none;align=left;verticalAlign=top;spacingLeft=4;spacingRight=4;overflow=hidden;rotatable=0;points=[[0,0.5],[1,0.5]];portConstraint=eastwest;" parent="r8D3JHcTatnKne28WLY3-1" vertex="1">
          <mxGeometry y="78" width="200" height="26" as="geometry" />
        </mxCell>
        <mxCell id="r8D3JHcTatnKne28WLY3-6" value="+ rsleNodeAndTaskMapper$" style="text;strokeColor=none;fillColor=none;align=left;verticalAlign=top;spacingLeft=4;spacingRight=4;overflow=hidden;rotatable=0;points=[[0,0.5],[1,0.5]];portConstraint=eastwest;" parent="r8D3JHcTatnKne28WLY3-1" vertex="1">
          <mxGeometry y="104" width="200" height="26" as="geometry" />
        </mxCell>
        <mxCell id="r8D3JHcTatnKne28WLY3-3" value="" style="line;strokeWidth=1;fillColor=none;align=left;verticalAlign=middle;spacingTop=-1;spacingLeft=3;spacingRight=3;rotatable=0;labelPosition=right;points=[];portConstraint=eastwest;" parent="r8D3JHcTatnKne28WLY3-1" vertex="1">
          <mxGeometry y="130" width="200" height="8" as="geometry" />
        </mxCell>
        <mxCell id="r8D3JHcTatnKne28WLY3-4" value="+ resetTaskBroadcastSubject" style="text;strokeColor=none;fillColor=none;align=left;verticalAlign=top;spacingLeft=4;spacingRight=4;overflow=hidden;rotatable=0;points=[[0,0.5],[1,0.5]];portConstraint=eastwest;" parent="r8D3JHcTatnKne28WLY3-1" vertex="1">
          <mxGeometry y="138" width="200" height="26" as="geometry" />
        </mxCell>
        <mxCell id="r8D3JHcTatnKne28WLY3-13" value="flash.service" style="swimlane;fontStyle=1;align=center;verticalAlign=top;childLayout=stackLayout;horizontal=1;startSize=26;horizontalStack=0;resizeParent=1;resizeParentMax=0;resizeLast=0;collapsible=1;marginBottom=0;" parent="1" vertex="1">
          <mxGeometry x="430" y="130" width="367" height="373" as="geometry" />
        </mxCell>
        <mxCell id="r8D3JHcTatnKne28WLY3-17" value="+ nodeFqnAndFlashStatusMapper: Map&lt;NodeFqn,FlashStatus&gt;" style="text;strokeColor=none;fillColor=none;align=left;verticalAlign=top;spacingLeft=4;spacingRight=4;overflow=hidden;rotatable=0;points=[[0,0.5],[1,0.5]];portConstraint=eastwest;" parent="r8D3JHcTatnKne28WLY3-13" vertex="1">
          <mxGeometry y="26" width="367" height="26" as="geometry" />
        </mxCell>
        <mxCell id="r8D3JHcTatnKne28WLY3-14" value="- afterFlashEvent: Subject" style="text;strokeColor=none;fillColor=none;align=left;verticalAlign=top;spacingLeft=4;spacingRight=4;overflow=hidden;rotatable=0;points=[[0,0.5],[1,0.5]];portConstraint=eastwest;" parent="r8D3JHcTatnKne28WLY3-13" vertex="1">
          <mxGeometry y="52" width="367" height="26" as="geometry" />
        </mxCell>
        <mxCell id="r8D3JHcTatnKne28WLY3-24" value="- afterFlashSubscription" style="text;strokeColor=none;fillColor=none;align=left;verticalAlign=top;spacingLeft=4;spacingRight=4;overflow=hidden;rotatable=0;points=[[0,0.5],[1,0.5]];portConstraint=eastwest;" parent="r8D3JHcTatnKne28WLY3-13" vertex="1">
          <mxGeometry y="78" width="367" height="26" as="geometry" />
        </mxCell>
        <mxCell id="r8D3JHcTatnKne28WLY3-25" value="- flashStatusSubscription" style="text;strokeColor=none;fillColor=none;align=left;verticalAlign=top;spacingLeft=4;spacingRight=4;overflow=hidden;rotatable=0;points=[[0,0.5],[1,0.5]];portConstraint=eastwest;" parent="r8D3JHcTatnKne28WLY3-13" vertex="1">
          <mxGeometry y="104" width="367" height="26" as="geometry" />
        </mxCell>
        <mxCell id="r8D3JHcTatnKne28WLY3-26" value="- rsleNodeAndTaskMapperSubscription" style="text;strokeColor=none;fillColor=none;align=left;verticalAlign=top;spacingLeft=4;spacingRight=4;overflow=hidden;rotatable=0;points=[[0,0.5],[1,0.5]];portConstraint=eastwest;" parent="r8D3JHcTatnKne28WLY3-13" vertex="1">
          <mxGeometry y="130" width="367" height="26" as="geometry" />
        </mxCell>
        <mxCell id="r8D3JHcTatnKne28WLY3-15" value="" style="line;strokeWidth=1;fillColor=none;align=left;verticalAlign=middle;spacingTop=-1;spacingLeft=3;spacingRight=3;rotatable=0;labelPosition=right;points=[];portConstraint=eastwest;" parent="r8D3JHcTatnKne28WLY3-13" vertex="1">
          <mxGeometry y="156" width="367" height="8" as="geometry" />
        </mxCell>
        <mxCell id="r8D3JHcTatnKne28WLY3-16" value="+ getFlashStatusObservable" style="text;strokeColor=none;fillColor=none;align=left;verticalAlign=top;spacingLeft=4;spacingRight=4;overflow=hidden;rotatable=0;points=[[0,0.5],[1,0.5]];portConstraint=eastwest;" parent="r8D3JHcTatnKne28WLY3-13" vertex="1">
          <mxGeometry y="164" width="367" height="26" as="geometry" />
        </mxCell>
        <mxCell id="U06hc8JL7uiyJ1hZjo2l-1" value="+ startFlash" style="text;strokeColor=none;fillColor=none;align=left;verticalAlign=top;spacingLeft=4;spacingRight=4;overflow=hidden;rotatable=0;points=[[0,0.5],[1,0.5]];portConstraint=eastwest;" vertex="1" parent="r8D3JHcTatnKne28WLY3-13">
          <mxGeometry y="190" width="367" height="26" as="geometry" />
        </mxCell>
        <mxCell id="r8D3JHcTatnKne28WLY3-18" value="- createFlashStatusSubject" style="text;strokeColor=none;fillColor=none;align=left;verticalAlign=top;spacingLeft=4;spacingRight=4;overflow=hidden;rotatable=0;points=[[0,0.5],[1,0.5]];portConstraint=eastwest;" parent="r8D3JHcTatnKne28WLY3-13" vertex="1">
          <mxGeometry y="216" width="367" height="27" as="geometry" />
        </mxCell>
        <mxCell id="r8D3JHcTatnKne28WLY3-19" value="- storeFlashStatusSubject" style="text;strokeColor=none;fillColor=none;align=left;verticalAlign=top;spacingLeft=4;spacingRight=4;overflow=hidden;rotatable=0;points=[[0,0.5],[1,0.5]];portConstraint=eastwest;" parent="r8D3JHcTatnKne28WLY3-13" vertex="1">
          <mxGeometry y="243" width="367" height="26" as="geometry" />
        </mxCell>
        <mxCell id="r8D3JHcTatnKne28WLY3-20" value="- subscribeRsleNodeAndTaskMapper" style="text;strokeColor=none;fillColor=none;align=left;verticalAlign=top;spacingLeft=4;spacingRight=4;overflow=hidden;rotatable=0;points=[[0,0.5],[1,0.5]];portConstraint=eastwest;" parent="r8D3JHcTatnKne28WLY3-13" vertex="1">
          <mxGeometry y="269" width="367" height="26" as="geometry" />
        </mxCell>
        <mxCell id="r8D3JHcTatnKne28WLY3-21" value="- subscribeTaskStatus" style="text;strokeColor=none;fillColor=none;align=left;verticalAlign=top;spacingLeft=4;spacingRight=4;overflow=hidden;rotatable=0;points=[[0,0.5],[1,0.5]];portConstraint=eastwest;" parent="r8D3JHcTatnKne28WLY3-13" vertex="1">
          <mxGeometry y="295" width="367" height="26" as="geometry" />
        </mxCell>
        <mxCell id="r8D3JHcTatnKne28WLY3-22" value="- multipleFlash" style="text;strokeColor=none;fillColor=none;align=left;verticalAlign=top;spacingLeft=4;spacingRight=4;overflow=hidden;rotatable=0;points=[[0,0.5],[1,0.5]];portConstraint=eastwest;" parent="r8D3JHcTatnKne28WLY3-13" vertex="1">
          <mxGeometry y="321" width="367" height="26" as="geometry" />
        </mxCell>
        <mxCell id="r8D3JHcTatnKne28WLY3-23" value="- flashConclusion" style="text;strokeColor=none;fillColor=none;align=left;verticalAlign=top;spacingLeft=4;spacingRight=4;overflow=hidden;rotatable=0;points=[[0,0.5],[1,0.5]];portConstraint=eastwest;" parent="r8D3JHcTatnKne28WLY3-13" vertex="1">
          <mxGeometry y="347" width="367" height="26" as="geometry" />
        </mxCell>
      </root>
    </mxGraphModel>
  </diagram>
</mxfile>
